<svg preserveAspectRatio="none" width="100%" height="100%" overflow="visible" style="display: block;" viewBox="0 0 48 48" fill="none" xmlns="http://www.w3.org/2000/svg">
<g id="fi_5798943">
<path id="Vector" d="M37.578 21.4462L44.75 17.4584L35.1819 12.1384V27.4273H29.2786L25.0228 21.9917H28.819L23.2083 14.7659H27.0828L17.4683 4L7.85376 14.7659H11.7282L6.11751 21.9917H9.91377L3.75 29.8644H13.1203V33.3458H3.7705V44.9936L44.7478 45V27.4273H37.578L37.578 21.4462ZM37.578 16.2481L39.7548 17.4584L37.578 18.6687V16.2481ZM8.72101 27.4273L14.8849 19.5546H11.0631L16.6737 12.3288H13.2672L17.4683 7.62454L21.6695 12.3288H18.263L23.8736 19.5546H20.0517L26.2157 27.4273H8.72101ZM19.4202 29.8644V33.3394H15.5164V29.8644H19.4202ZM6.1666 35.7828H25.1463C28.9026 35.7828 31.9823 38.7867 32.1855 42.5565H6.1666V35.7828ZM34.5838 42.5629C34.548 41.6566 34.3883 40.7824 34.1213 39.957H42.3517V42.5629H34.5838ZM42.3517 37.52H32.9322C31.2276 35.0009 28.3736 33.3458 25.1463 33.3458H21.8163V29.8644H42.3517V37.52Z" fill="var(--fill-0, #006728)"/>
</g>
</svg>
