<svg preserveAspectRatio="none" width="100%" height="100%" overflow="visible" style="display: block;" viewBox="0 0 48 48" fill="none" xmlns="http://www.w3.org/2000/svg">
<g id="fi_1386676">
<path id="Vector" d="M36.3402 11.7159C36.3752 11.7165 36.4102 11.7172 36.4448 11.7172C37.332 11.7172 38.1347 11.4156 38.7721 10.8419C39.775 9.93908 40.3901 8.72747 40.5997 7.24076C40.7743 6.00296 40.1488 4.84678 38.9668 4.22346L34.966 2.11377C34.211 1.71556 33.3298 1.61083 32.4847 1.8186C31.6414 2.02603 30.9367 2.52047 30.5011 3.2101L24.7878 12.2484H23.2606L22.3805 4.38226C22.3745 4.33194 22.366 4.28161 22.3537 4.2323C21.9996 2.77381 20.5551 1.71522 18.9192 1.71522H11.7167C10.7085 1.71522 9.73125 2.09778 9.03468 2.76497C8.36156 3.40971 8.0157 4.24488 8.06112 5.1161L8.146 6.73918C8.19887 7.75424 8.64712 8.61491 9.4416 9.22769C10.2774 9.87243 11.3321 10.1356 12.4148 9.96867L19.9985 8.78154L20.3864 12.2484H17.2897C16.5004 12.2484 15.86 12.8329 15.86 13.5542V24.8389L15.8418 24.8467C13.5842 25.8121 12.1814 27.9354 12.1814 30.3882V33.7296C12.1814 35.1156 12.6188 36.332 13.519 37.4477L15.86 40.3497V43.6741C15.86 45.1139 17.1426 46.2857 18.7193 46.2857H30.5294C32.106 46.2857 33.3886 45.1139 33.3886 43.6741V40.466L37.2408 38.0411C38.4195 37.2991 39.0956 36.1236 39.0956 34.8157V21.1279C39.0956 18.9678 37.1715 17.2104 34.8067 17.2104H33.3886V13.5542C33.3886 12.8329 32.7486 12.2484 31.959 12.2484H28.0889L31.0532 7.55905L33.9389 10.6818C34.5319 11.3234 35.3849 11.6907 36.3402 11.7159ZM11.9349 7.39412C11.6784 7.43391 11.4848 7.38528 11.2863 7.23225C11.1564 7.13228 11.0213 6.98061 11.0023 6.61506L10.9174 4.99198C10.9073 4.79815 11.0134 4.65397 11.1043 4.56725C11.2636 4.41457 11.487 4.32684 11.7171 4.32684H18.9192C19.2055 4.32684 19.4605 4.49992 19.5469 4.74544L19.7074 6.17775L11.9349 7.39412ZM33.3886 19.8221H34.8071C35.5952 19.8221 36.2367 20.4076 36.2367 21.1279V34.8157C36.2367 35.271 36.0286 35.6329 35.6183 35.891L33.3886 37.2944V19.8221ZM18.7197 20.0832H26.984L18.7197 23.6167V20.0832ZM18.7197 43.6741V41.1482C18.7442 41.1206 18.7681 41.0917 18.79 41.0625H30.5297V43.6741H18.7197ZM30.5297 38.4512H17.8801L15.8209 35.8988C15.2815 35.2296 15.0406 34.5607 15.0406 33.7299V30.3885C15.0406 28.9386 15.7934 27.7511 17.054 27.2121L30.5297 21.4509V38.4512ZM30.5297 14.86V17.4067C30.4936 17.4271 30.459 17.4485 30.4255 17.4716H18.7197V14.86H30.5297ZM32.7963 5.3963C32.6943 5.28613 32.5982 5.11508 32.7181 4.92533L32.9772 4.51557C33.0509 4.39859 33.1667 4.3554 33.2289 4.3401C33.2903 4.3248 33.4121 4.30949 33.5368 4.37512L37.5371 6.48482C37.714 6.57833 37.7903 6.72047 37.7642 6.90716C37.6347 7.82599 37.3171 8.48501 36.7654 8.98183C36.66 9.0767 36.5699 9.10969 36.4232 9.10527C36.2188 9.09983 36.1619 9.03794 36.1239 8.99713L32.7963 5.3963Z" fill="var(--fill-0, #006728)"/>
</g>
</svg>
