<svg width="28" height="28" viewBox="0 0 28 28" fill="none" xmlns="http://www.w3.org/2000/svg">
<path d="M26.3317 9.5223C27.2109 7.75526 26.8641 5.55943 25.1908 4.60536L20.7923 2.09736C20.441 1.89693 19.9919 2.01593 19.7891 2.36282C19.0066 3.70144 14.5986 11.2418 14.3002 11.7523C14.2963 11.7456 14.4582 12.0226 8.81122 2.36282C8.60819 2.01549 8.15854 1.89746 7.80804 2.09736L3.40965 4.60536C1.73117 5.56243 1.39163 7.75971 2.26865 9.5223C2.30478 9.59401 2.32206 9.63027 2.35462 9.68699C3.5015 11.7813 6.09029 12.6887 7.84701 11.3043L10.9245 8.87891L13.4522 13.2029L12.127 15.4698L11.4061 15.0588C11.0548 14.8585 10.6057 14.9774 10.4029 15.3243C8.43242 18.6951 7.67394 19.9926 5.70282 23.3644C5.50013 23.711 5.62042 24.1549 5.97161 24.3551C8.95678 26.0573 8.78586 25.9998 9.05176 25.9998C9.30557 25.9998 9.55242 25.8697 9.68843 25.637C10.7021 23.903 9.66292 25.6806 14.3002 17.7481C14.4092 17.9345 18.803 25.4506 18.9119 25.637C19.0479 25.8697 19.2948 25.9998 19.5486 25.9998C19.828 25.9998 19.7461 25.9989 22.6288 24.3551C22.9798 24.1549 23.1003 23.7112 22.8975 23.3644C22.4448 22.5899 18.6502 16.0989 18.1974 15.3243C17.9946 14.9773 17.5454 14.8585 17.1942 15.0588L16.4734 15.4698L15.1482 13.2029L17.6759 8.87891L20.7534 11.3043C22.2932 12.518 24.8211 12.1208 26.2778 9.63748C26.2993 9.59154 26.3109 9.56949 26.3317 9.5223ZM4.14405 5.86164L7.90645 3.71628L8.73289 5.13L3.34292 8.21516C3.13127 7.32376 3.35168 6.31345 4.14405 5.86164ZM6.93083 10.1705C6.03482 10.8769 4.74669 10.4124 3.99952 9.51592L9.46728 6.38623C10.2506 7.72625 10.175 7.59686 10.1817 7.60832L6.93083 10.1705ZM11.3077 16.6778L12.7493 17.4998L11.917 18.9236L10.4754 18.1015L11.3077 16.6778ZM10.3504 21.6036L8.90875 20.7816L9.74106 19.3579L11.1827 20.1799L10.3504 21.6036ZM8.78366 24.2836L7.34204 23.4616L8.17436 22.0378L9.61597 22.8598L8.78366 24.2836ZM19.6916 20.7816L18.25 21.6036L17.4177 20.1799L18.8593 19.3579L19.6916 20.7816ZM19.8167 24.2836L18.9844 22.8598L20.426 22.0378L21.2583 23.4616L19.8167 24.2836ZM17.2926 16.6778L18.1249 18.1015L16.6833 18.9236L15.851 17.4998L17.2926 16.6778ZM15.2014 16.1952C14.4378 16.6306 14.4069 16.6339 14.3002 16.752C14.1879 16.6277 14.1445 16.6203 13.3989 16.1952L14.3002 14.6535L15.2014 16.1952ZM20.6939 3.71628L24.4564 5.86164C25.2482 6.31312 25.4694 7.3225 25.2574 8.21516L19.8675 5.13L20.6939 3.71628ZM21.6696 10.1705L18.4187 7.60837C18.5644 7.35905 18.8608 6.85197 19.1331 6.38627L24.6008 9.51596C23.8506 10.416 22.5632 10.8748 21.6696 10.1705Z" fill="white"/>
</svg>
