<svg width="28" height="28" viewBox="0 0 28 28" fill="none" xmlns="http://www.w3.org/2000/svg">
<path d="M21.1987 6.83425C21.2191 6.83465 21.2395 6.83505 21.2597 6.83505C21.7772 6.83505 22.2454 6.6591 22.6172 6.32446C23.2023 5.7978 23.5611 5.09102 23.6833 4.22377C23.7852 3.50173 23.4203 2.82729 22.7308 2.46368L20.3971 1.23303C19.9566 1.00075 19.4426 0.939648 18.9496 1.06085C18.4577 1.18185 18.0466 1.47027 17.7925 1.87256L14.4597 7.14489H13.5689L13.0555 2.55632C13.052 2.52696 13.047 2.4976 13.0398 2.46884C12.8333 1.61806 11.9907 1.00055 11.0364 1.00055H6.83494C6.24684 1.00055 5.67675 1.22371 5.27042 1.6129C4.87777 1.989 4.67601 2.47618 4.70251 2.98439L4.75202 3.93119C4.78286 4.5233 5.04434 5.02537 5.50779 5.38282C5.99535 5.75892 6.6106 5.91245 7.24215 5.81505L11.666 5.12256L11.8923 7.14489H10.0858C9.62542 7.14489 9.25188 7.48588 9.25188 7.90661V14.4893L9.24124 14.4939C7.92429 15.0571 7.10598 16.2956 7.10598 17.7265V19.6756C7.10598 20.4841 7.36116 21.1937 7.88628 21.8445L9.25188 23.5373V25.4766C9.25188 26.3164 10 27 10.9198 27H17.809C18.7287 27 19.4769 26.3164 19.4769 25.4766V23.6052L21.724 22.1906C22.4116 21.7578 22.806 21.0721 22.806 20.3092V12.3246C22.806 11.0646 21.6836 10.0394 20.3041 10.0394H19.4769V7.90661C19.4769 7.48588 19.1036 7.14489 18.6429 7.14489H16.3854L18.1146 4.40944L19.7979 6.23103C20.1438 6.60534 20.6414 6.81957 21.1987 6.83425ZM6.96221 4.31324C6.81257 4.33644 6.69964 4.30808 6.58389 4.21881C6.5081 4.1605 6.42926 4.07202 6.41819 3.85878L6.36867 2.91199C6.36281 2.79892 6.4247 2.71481 6.47769 2.66423C6.57064 2.57517 6.70095 2.52399 6.83516 2.52399H11.0364C11.2034 2.52399 11.3522 2.62495 11.4026 2.76817L11.4962 3.60369L6.96221 4.31324ZM19.4769 11.5629H20.3043C20.7641 11.5629 21.1383 11.9045 21.1383 12.3246V20.3092C21.1383 20.5748 21.0169 20.7858 20.7775 20.9364L19.4769 21.755V11.5629ZM10.92 11.7152H15.7408L10.92 13.7764V11.7152ZM10.92 25.4766V24.0031C10.9343 23.987 10.9482 23.9702 10.961 23.9531H17.8092V25.4766H10.92ZM17.8092 22.4299H10.4303L9.22907 20.941C8.91439 20.5506 8.77388 20.1604 8.77388 19.6758V17.7267C8.77388 16.8808 9.213 16.1881 9.94836 15.8737L17.8092 12.513V22.4299ZM17.8092 8.66833V10.1539C17.7881 10.1658 17.7679 10.1783 17.7484 10.1918H10.92V8.66833H17.8092ZM19.1314 3.14784C19.0719 3.08357 19.0158 2.9838 19.0858 2.87311L19.2369 2.63408C19.2799 2.56584 19.3475 2.54065 19.3837 2.53172C19.4196 2.5228 19.4906 2.51387 19.5633 2.55216L21.8969 3.78281C22 3.83736 22.0445 3.92028 22.0293 4.02918C21.9538 4.56516 21.7685 4.94959 21.4467 5.2394C21.3852 5.29474 21.3326 5.31399 21.2471 5.31141C21.1279 5.30823 21.0946 5.27213 21.0725 5.24833L19.1314 3.14784Z" fill="white"/>
</svg>
